<svg xmlns="http://www.w3.org/2000/svg" width="1211.61" height="623.55" viewBox="0 0 1211.61 623.55"><defs><style>.cls-1{stroke:#000;stroke-miterlimit:10;}</style></defs><g id="Layer_2" data-name="Layer 2"><g id="Form_uden_fill_og_stroke" data-name="Form uden fill og stroke"><polygon class="cls-1" points="83.12 621.77 56.29 621.77 56.29 1.33 83.12 1.9 83.12 621.77"/><polygon class="cls-1" points="138.91 7.43 0.5 7.43 0.5 0.5 138.91 0.91 138.91 7.43"/><polygon class="cls-1" points="391.26 622.18 364.08 622.18 264.06 0.93 291.23 0.92 391.26 622.18"/><polygon points="177.8 622.18 186.38 622.18 303.89 135.73 295.78 133.78 177.8 622.18"/><polygon class="cls-1" points="348.37 524.57 209.96 524.57 213.16 517.96 348.37 517.96 348.37 524.57"/><polygon class="cls-1" points="473.34 621.77 446.51 621.77 446.51 1.33 473.34 1.9 473.34 621.77"/><polygon points="584.92 621.77 446.51 621.77 446.51 614.84 584.92 615.25 584.92 621.77"/><polygon class="cls-1" points="642.31 621.77 615.49 621.77 615.49 1.33 642.31 1.9 642.31 621.77"/><polygon points="753.89 621.77 615.49 621.77 615.49 614.84 753.89 615.25 753.89 621.77"/><polygon class="cls-1" points="820.94 622.18 794.12 622.18 794.12 103.11 820.94 103.58 820.94 622.18"/><polygon class="cls-1" points="820.94 7.84 788.99 7.84 788.99 0.92 820.94 1.33 820.94 7.84"/><polygon class="cls-1" points="924.79 621.77 897.97 621.77 897.97 1.33 924.79 1.9 924.79 621.77"/><polygon class="cls-1" points="1015.68 622.36 1023.83 622.36 909.3 132.48 901.17 134.39 1015.68 622.36"/><polygon class="cls-1" points="1022.82 619.32 1003.36 565.16 1003.36 1.33 1023.38 1.9 1022.82 619.32"/><polygon class="cls-1" points="1111.94 622.46 1085.11 622.46 1085.11 2.03 1111.94 2.59 1111.94 622.46"/><polygon class="cls-1" points="1202.83 623.05 1210.98 623.05 1096.44 133.17 1088.32 135.08 1202.83 623.05"/><polygon class="cls-1" points="1209.97 620.01 1190.5 565.86 1190.5 2.03 1210.52 2.59 1209.97 620.01"/></g></g></svg>